<svg width="947" height="277" viewBox="0 0 947 277" fill="none" xmlns="http://www.w3.org/2000/svg">
<path d="M0.703835 0.272719H71.8153L146.922 183.511H150.118L225.224 0.272719H296.336V273H240.406V95.4876H238.142L167.563 271.668H129.477L58.8981 94.8217H56.6342V273H0.703835V0.272719ZM390.852 273H329.062L423.211 0.272719H497.519L591.535 273H529.745L461.43 62.5952H459.3L390.852 273ZM386.99 165.8H532.942V210.811H386.99V165.8ZM624.361 273V0.272719H682.023V120.523H685.618L783.763 0.272719H852.877L751.669 122.387L854.075 273H785.094L710.387 160.873L682.023 195.496V273H624.361ZM914.999 276.462C906.21 276.462 898.664 273.355 892.361 267.141C886.146 260.837 883.039 253.291 883.039 244.502C883.039 235.802 886.146 228.344 892.361 222.13C898.664 215.915 906.21 212.808 914.999 212.808C923.522 212.808 930.979 215.915 937.372 222.13C943.764 228.344 946.96 235.802 946.96 244.502C946.96 250.362 945.45 255.733 942.432 260.615C939.502 265.409 935.64 269.271 930.846 272.201C926.052 275.042 920.77 276.462 914.999 276.462Z" fill="white"/>
</svg>
